<?xml version="1.0" encoding="utf-8"?>
<!-- Generator: Adobe Illustrator 16.0.0, SVG Export Plug-In . SVG Version: 6.00 Build 0)  -->
<!DOCTYPE svg PUBLIC "-//W3C//DTD SVG 1.1//EN" "http://www.w3.org/Graphics/SVG/1.1/DTD/svg11.dtd">
<svg version="1.1" id="Layer_1" xmlns="http://www.w3.org/2000/svg" xmlns:xlink="http://www.w3.org/1999/xlink" x="0px" y="0px"
	 width="416px" height="554px" viewBox="0 0 416 554" enable-background="new 0 0 416 554" xml:space="preserve">
<path fill="#FFFFFF" stroke="#000000" stroke-width="12.7819" stroke-linecap="round" stroke-linejoin="round" stroke-miterlimit="10" d="
	M400.443,526.724c0,7.869-13.536,14.247-30.231,14.247H47.788c-16.695,0-30.231-6.378-30.231-14.247V58.93
	c0-7.869,13.536-14.248,30.231-14.248h322.424c16.695,0,30.231,6.379,30.231,14.248V526.724z"/>
<rect x="133.94" y="13.029" fill="#FFFFFF" stroke="#000000" stroke-width="7.5188" stroke-linecap="round" stroke-linejoin="round" stroke-miterlimit="10" width="150.119" height="63.307"/>
<polyline fill="none" stroke="#ED1C24" stroke-width="12.2552" stroke-linecap="round" stroke-linejoin="round" stroke-miterlimit="10" points="
	175.384,147.242 142.704,110.987 110.023,147.242 "/>
<path fill="none" stroke="#ED1C24" stroke-width="12.2552" stroke-linecap="round" stroke-linejoin="round" stroke-miterlimit="10" stroke-dasharray="10.2128,20.4254" d="
	M142.704,123.978c0,65.872,0,57.702,0,81.702c0,12.255-0.329,60.383,67.914,73.021c55.148,10.213,84.255,23.489,100.088,47.987
	c15.75,24.371,10.209,61.799,10.209,61.799"/>
<line fill="none" stroke="#000000" stroke-width="12.2552" stroke-linecap="round" stroke-linejoin="round" stroke-miterlimit="10" x1="257.994" y1="187.296" x2="311.101" y2="240.402"/>
<line fill="none" stroke="#000000" stroke-width="12.2552" stroke-linecap="round" stroke-linejoin="round" stroke-miterlimit="10" x1="311.101" y1="187.296" x2="257.994" y2="240.402"/>
<circle fill="none" stroke="#ED1C24" stroke-width="11.0702" stroke-linecap="round" stroke-linejoin="round" stroke-miterlimit="10" cx="320.422" cy="440.533" r="32.519"/>
<g>
	
		<line fill="none" stroke="#000000" stroke-width="12.2552" stroke-linecap="round" stroke-linejoin="round" stroke-miterlimit="10" x1="172.208" y1="375.468" x2="225.314" y2="428.574"/>
	
		<line fill="none" stroke="#000000" stroke-width="12.2552" stroke-linecap="round" stroke-linejoin="round" stroke-miterlimit="10" x1="225.314" y1="375.468" x2="172.208" y2="428.574"/>
</g>
<g>
	
		<line fill="none" stroke="#000000" stroke-width="12.2552" stroke-linecap="round" stroke-linejoin="round" stroke-miterlimit="10" x1="72.124" y1="276.344" x2="125.229" y2="329.45"/>
	
		<line fill="none" stroke="#000000" stroke-width="12.2552" stroke-linecap="round" stroke-linejoin="round" stroke-miterlimit="10" x1="125.229" y1="276.344" x2="72.124" y2="329.45"/>
</g>
</svg>
