<svg id="Layer_1" data-name="Layer 1" xmlns="http://www.w3.org/2000/svg" viewBox="0 0 64.11 67.33"><title>penciledGroup</title><polygon points="39.02 9.82 27.22 0 24.62 15.13 39.02 9.82"/><polygon points="0 58.74 14.2 52.91 2.05 43.53 0 58.74"/><polygon points="64.11 53.02 52.01 43.58 49.88 58.78 64.11 53.02"/><path d="M49.45,90.45a27.73,27.73,0,0,1-11.69-2.57l-.84,1.81A29.84,29.84,0,0,0,66.69,87l-1.15-1.63A27.75,27.75,0,0,1,49.45,90.45Z" transform="translate(-19.14 -25.12)"/><path d="M77.23,60l2-.18A30,30,0,0,0,62,35.41l-.84,1.82A27.92,27.92,0,0,1,77.23,60Z" transform="translate(-19.14 -25.12)"/><path d="M21.55,62.55A27.86,27.86,0,0,1,33.37,39.77l-1.15-1.64A29.87,29.87,0,0,0,19.55,62.55c0,.92.05,1.82.13,2.72l2-.18C21.6,64.25,21.55,63.41,21.55,62.55Z" transform="translate(-19.14 -25.12)"/><path d="M79.23,59.84l-2,.18c.08.83.12,1.68.12,2.53a27.75,27.75,0,0,1-3.75,14l1.73,1a29.65,29.65,0,0,0,4-14.94C79.35,61.64,79.31,60.73,79.23,59.84Z" transform="translate(-19.14 -25.12)"/><path d="M32.22,38.13l1.15,1.64a27.73,27.73,0,0,1,16.08-5.12v-2A29.79,29.79,0,0,0,32.22,38.13Z" transform="translate(-19.14 -25.12)"/><path d="M36.92,89.69l.84-1.81A28,28,0,0,1,25.31,76.49l-1.73,1A30,30,0,0,0,36.92,89.69Z" transform="translate(-19.14 -25.12)"/></svg>