<?xml version="1.0" encoding="utf-8"?>
<!-- Generator: Adobe Illustrator 22.1.0, SVG Export Plug-In . SVG Version: 6.00 Build 0)  -->
<svg version="1.1" id="Layer_1" xmlns="http://www.w3.org/2000/svg" xmlns:xlink="http://www.w3.org/1999/xlink" x="0px" y="0px"
	 viewBox="0 0 90 112.5" style="enable-background:new 0 0 90 112.5;" xml:space="preserve">
<style type="text/css">
	.st0{fill:none;}
</style>
<g>
	<path class="st0" d="M45,15.1c-16.5,0-29.9,13.4-29.9,29.9S28.5,74.9,45,74.9S74.9,61.5,74.9,45S61.5,15.1,45,15.1z M45,72.9
		c-15.4,0-27.9-12.5-27.9-27.9S29.6,17.1,45,17.1S72.9,29.6,72.9,45S60.4,72.9,45,72.9z"/>
	<path d="M50.1,41.6l5.5-11.1l-12.2,2.1l2.7,3.6l-11.5,8.9l16.1,12.5L52,56L37.9,45.1l9.4-7.3L50.1,41.6z M52.1,33.1l-2.3,4.7L47,34
		L52.1,33.1z"/>
</g>
</svg>
