<?xml version="1.0" encoding="utf-8"?>
<!-- Generator: Adobe Illustrator 22.1.0, SVG Export Plug-In . SVG Version: 6.00 Build 0)  -->
<svg version="1.1" id="Layer_1" xmlns="http://www.w3.org/2000/svg" xmlns:xlink="http://www.w3.org/1999/xlink" x="0px" y="0px"
	 viewBox="0 0 90 112.5" style="enable-background:new 0 0 90 112.5;" xml:space="preserve">
<style type="text/css">
	.st0{fill:none;}
</style>
<g>
	<path class="st0" d="M45,15.1c-16.5,0-29.9,13.4-29.9,29.9S28.5,74.9,45,74.9S74.9,61.5,74.9,45S61.5,15.1,45,15.1z M45,72.9
		c-15.4,0-27.9-12.5-27.9-27.9S29.6,17.1,45,17.1S72.9,29.6,72.9,45S60.4,72.9,45,72.9z"/>
	<path d="M51.9,44.6h5v2.6c0,3.3-2.7,5.9-5.9,5.9c-3.3,0-5.9-2.7-5.9-5.9v-1.2c0-4.4-3.6-7.9-7.9-7.9c-4.4,0-7.9,3.6-7.9,7.9v8.1h2
		v-8.1c0-3.3,2.7-5.9,5.9-5.9c3.3,0,5.9,2.7,5.9,5.9v1.2c0,4.4,3.6,7.9,7.9,7.9c4.4,0,7.9-3.6,7.9-7.9v-2.6h5l-6-11L51.9,44.6z
		 M55.2,42.6l2.6-4.8l2.6,4.8H55.2z"/>
</g>
</svg>
