<?xml version="1.0" encoding="utf-8"?>
<!-- Generator: Adobe Illustrator 22.1.0, SVG Export Plug-In . SVG Version: 6.00 Build 0)  -->
<svg version="1.1" id="Layer_1" xmlns="http://www.w3.org/2000/svg" xmlns:xlink="http://www.w3.org/1999/xlink" x="0px" y="0px"
	 viewBox="0 0 90 112.5" style="enable-background:new 0 0 90 112.5;" xml:space="preserve">
<style type="text/css">
	.st0{fill:none;}
</style>
<g>
	<path class="st0" d="M45,15.1c-16.5,0-29.9,13.4-29.9,29.9S28.5,74.9,45,74.9S74.9,61.5,74.9,45S61.5,15.1,45,15.1z M45,72.9
		c-15.4,0-27.9-12.5-27.9-27.9S29.6,17.1,45,17.1S72.9,29.6,72.9,45S60.4,72.9,45,72.9z"/>
	<path d="M45.5,41.8L34.4,52.9l1.4,1.4l11.1-11.1l3.6,3.6l3.6-12l-12,3.6L45.5,41.8z M51.1,37.8L49.5,43l-3.7-3.7L51.1,37.8z"/>
</g>
</svg>
