<svg xmlns="http://www.w3.org/2000/svg" viewBox="0 0 68 85" x="0px" y="0px"><path fill="#000000" d="M114.105503,795.764905 L112.40042,796.773909 C111.913304,797.062166 111.295165,796.908462 111.003321,796.440336 C111.003321,796.440336 111.022385,796.455307 110.750227,796.051302 C108.923707,793.339924 106.57953,791.005493 103.859957,789.190267 C103.484356,788.939566 103.568756,789.001317 103.568756,789.001317 C103.100732,788.707664 102.942192,788.079332 103.226091,787.59958 L104.235095,785.894497 C104.523352,785.407381 105.128714,785.260009 105.596942,785.548884 C105.596942,785.548884 105.473745,785.465432 105.828098,785.696652 C109.133379,787.853385 111.971041,790.665832 114.15712,793.950026 C114.440557,794.375841 114.446694,794.399905 114.446694,794.399905 C114.740787,794.871248 114.585255,795.481006 114.105503,795.764905 Z M90,790 C86.1340068,790 83,786.865993 83,783 C83,779.134007 86.1340068,776 90,776 C93.8659932,776 97,779.134007 97,783 C97,786.865993 93.8659932,790 90,790 Z M90,844 C86.1340068,844 83,840.865993 83,837 C83,833.134007 86.1340068,830 90,830 C93.8659932,830 97,833.134007 97,837 C97,840.865993 93.8659932,844 90,844 Z M63,817 C59.1340068,817 56,813.865993 56,810 C56,806.134007 59.1340068,803 63,803 C66.8659932,803 70,806.134007 70,810 C70,813.865993 66.8659932,817 63,817 Z M117,817 C113.134007,817 110,813.865993 110,810 C110,806.134007 113.134007,803 117,803 C120.865993,803 124,806.134007 124,810 C124,813.865993 120.865993,817 117,817 Z M104.235095,834.105503 L103.226091,832.40042 C102.937834,831.913304 103.092063,831.293917 103.560838,831.000532 C103.560838,831.000532 103.645107,830.958661 104.096061,830.650193 C106.70999,828.862176 108.967578,826.590555 110.739401,823.964756 C111.015474,823.555621 111.00428,823.557819 111.00428,823.557819 C111.298644,823.089421 111.920668,822.942192 112.40042,823.226091 L114.105503,824.235095 C114.592619,824.523352 114.739381,825.127296 114.449753,825.593776 C114.449753,825.593776 114.407404,825.676839 114.105335,826.127501 C111.983712,829.29279 109.255432,832.016527 106.086318,834.132888 C105.648847,834.425035 105.596231,834.448699 105.596231,834.448699 C105.127265,834.741495 104.518994,834.585255 104.235095,834.105503 Z M65.8944967,824.235095 L67.5995803,823.226091 C68.0866961,822.937834 68.7064487,823.093256 69.0002841,823.563502 C69.0002841,823.563502 69.0142342,823.602493 69.3072014,824.033573 C71.0796871,826.641653 73.332555,828.897539 75.9380807,830.673506 C76.378182,830.973485 76.4461772,831.005487 76.4461772,831.005487 C76.9057694,831.294984 77.0578083,831.920668 76.7739092,832.40042 L75.7649049,834.105503 C75.4766481,834.592619 74.8703239,834.737957 74.4009088,834.446573 C74.4009088,834.446573 74.3329607,834.41358 73.8869132,834.114991 C70.6675154,831.959885 67.9042478,829.177475 65.7713643,825.942013 C65.5135386,825.550906 65.5537802,825.602811 65.5537802,825.602811 C65.2594794,825.130201 65.4147448,824.518994 65.8944967,824.235095 Z M75.7649049,785.894497 L76.7739092,787.59958 C77.0621659,788.086696 76.9113268,788.703183 76.4467337,788.992991 C76.4467337,788.992991 76.4358389,788.98993 76.0226998,789.269069 C73.3900404,791.047837 71.113927,793.315123 69.3249682,795.94032 C69.0255436,796.379709 68.9935864,796.447582 68.9935864,796.447582 C68.7046014,796.906409 68.0793322,797.057808 67.5995803,796.773909 L65.8944967,795.764905 C65.4073808,795.476648 65.2638609,794.867162 65.5574881,794.393847 C65.5574881,794.393847 65.5723473,794.355313 65.8630238,793.919805 C67.9964358,790.723404 70.7476159,787.975192 73.9465105,785.845221 C74.3734533,785.560943 74.397596,785.554804 74.397596,785.554804 C74.8702147,785.259873 75.4810058,785.414745 75.7649049,785.894497 Z" transform="translate(-56 -776)"/><text x="0" y="83" fill="#000000" font-size="5px" font-weight="bold" font-family="'Helvetica Neue', Helvetica, Arial-Unicode, Arial, Sans-serif">Created by Andrejs Kirma</text><text x="0" y="88" fill="#000000" font-size="5px" font-weight="bold" font-family="'Helvetica Neue', Helvetica, Arial-Unicode, Arial, Sans-serif">from the Noun Project</text></svg>