<svg xmlns="http://www.w3.org/2000/svg" xmlns:xlink="http://www.w3.org/1999/xlink" version="1.1" x="0px" y="0px" viewBox="0 0 100 125" enable-background="new 0 0 100 100" xml:space="preserve"><g><path d="M94.871,49.965c-0.391-5.405-1.443-12.15-6.141-16.359c-0.586-0.524-1.394-0.358-1.897,0.02   c-0.582,0.437-0.776,1.102-0.491,1.693c2.09,4.349,3.16,8.782,3.369,13.949c0.196,4.86,0.068,10.511-2.375,15.576   c-2,4.146-5.342,7.94-9.666,10.973c-2.672,1.874-5.676,3.164-8.582,4.411c-0.828,0.356-1.679,0.721-2.519,1.098   c0.735-1.465,1.381-3.079,0.72-4.731c-0.135-0.338-0.413-0.608-0.783-0.762c-0.398-0.166-0.854-0.171-1.221-0.014   c-1.621,0.69-2.624,2.173-3.595,3.607c-0.339,0.502-0.66,0.976-1.006,1.417c-0.356,0.455-0.833,0.949-1.337,1.473   c-1.277,1.324-2.723,2.824-2.922,4.418c-0.286,2.289,1.861,3.205,3.429,3.873l0.047,0.02c0.468,0.2,0.943,0.423,1.424,0.649   c1.633,0.768,3.311,1.557,5.056,1.62c0.443,0.016,0.89-0.015,1.342-0.104c0.769-0.152,1.512-0.784,1.848-1.571   c0.271-0.635,0.235-1.276-0.103-1.805c-1.028-1.61-2.123-2.075-3.779-2.779l-0.384-0.164c5.043-0.634,10.027-3.287,13.412-5.282   c5.523-3.253,9.931-7.653,12.748-12.724C94.29,63.379,95.404,57.328,94.871,49.965z"/><path d="M47.975,83.943c-9.598-2.146-19.715-8.79-25.109-17.044c-4.385-6.711-5.666-14.331-5.342-22.102   c0.339,0.551,0.652,1.063,0.928,1.437c1.129,1.525,2.146,2.958,3.826,3.891c1.331,0.739,2.813-0.767,2.449-2.087   c-0.735-2.66-3.123-5.001-4.842-7.103c-1.335-1.633-2.689-3.216-4.974-2.325c-2.326,0.906-4.493,3.274-6.34,4.911   c-1.367,1.213-3.851,2.776-3.546,4.87c0.068,0.469,0.571,0.914,1.022,1c0.174,0.033,0.348,0.066,0.522,0.099   c0.481,0.092,0.992-0.203,1.276-0.623c0.133-0.008,0.393-0.178,0.796-0.528c0.505-0.372,1.01-0.745,1.515-1.119   c0.744-0.555,1.478-1.119,2.203-1.701c0.205-0.164,0.408-0.332,0.612-0.497c-2.581,8.458,0.143,18.348,5.058,25.46   c3.198,4.628,7.359,8.457,12.218,11.29c5.352,3.12,10.957,4.415,16.99,5.425C49.369,87.554,50.19,84.438,47.975,83.943z"/><path d="M71.28,17.394c2.204,1.668,4.026,3.723,6.012,5.601c-0.321-0.051-0.64-0.103-0.956-0.158   c-1.983-0.343-3.901-0.928-5.841-0.236c-0.618,0.221-1.029,1.095-0.523,1.642c1.585,1.711,4.127,1.918,6.32,2.456   c2.116,0.518,4.365,1.165,6.551,1.179c0.886,0.006,2.106-0.497,2.154-1.566c0.181-4.004,1.75-7.908,1.391-11.944   c-0.098-1.099-1.829-1.343-2.382-0.475c-1.651,2.592-2.058,5.425-2.337,8.321c-2.102-5.997-8.806-10.216-14.395-12.467   c-6.26-2.521-13.051-3.177-19.714-2.241c-12.532,1.761-28.3,10.07-29.898,23.979c-0.157,1.368,2.097,1.876,2.48,0.544   c3.409-11.843,15.904-18.809,27.442-20.487c5.34-0.777,10.941-0.3,15.996,1.624C66.33,14.213,68.936,15.619,71.28,17.394z"/></g><text x="0" y="115" fill="#000000" font-size="5px" font-weight="bold" font-family="'Helvetica Neue', Helvetica, Arial-Unicode, Arial, Sans-serif">Created by Vladimir Belochkin</text><text x="0" y="120" fill="#000000" font-size="5px" font-weight="bold" font-family="'Helvetica Neue', Helvetica, Arial-Unicode, Arial, Sans-serif">from the Noun Project</text></svg>