<svg xmlns="http://www.w3.org/2000/svg" xmlns:xlink="http://www.w3.org/1999/xlink" version="1.1" x="0px" y="0px" viewBox="0 0 100 125" enable-background="new 0 0 100 100" xml:space="preserve"><path d="M93.64,65.503c-3.83-2.103-7.109-5.855-10.662-8.421c-0.688-0.497-4.741-3.322-5.195-0.753  c-0.508,2.873,2.872,4.831,4.807,6.504c0.692,0.599,1.446,1.189,2.216,1.783c-4.066,0.276-8.135,0.778-12.174,1.131  c-5.648,0.494-11.292,1.049-16.938,1.572c-5.384,0.498-10.775,0.918-16.171,1.274c-4.949,0.326-10.052,0.982-15.011,0.617  c-4.133-0.305-7.888-1.703-10.2-5.306c-2.01-3.131-2.716-6.944-3.089-10.59c-1.12-10.962-0.399-22.117-1.198-33.114  c-0.18-2.483-4.057-1.889-4.223,0.363C5.317,27.143,5.32,33.777,5.16,40.373C5.042,45.291,4.826,50.25,5.255,55.16  c0.85,9.732,5.097,18.695,15.576,20.56c5.111,0.909,10.515,0.289,15.655-0.014c5.954-0.35,11.902-0.83,17.84-1.386  c5.872-0.55,11.735-1.224,17.563-2.135c4.175-0.653,8.421-1.26,12.585-2.156c-2.885,2.865-4.88,6.612-4.097,10.26  c0.26,1.212,1.997,1.41,2.827,0.762c2.069-1.618,3.472-4.091,5.2-6.066c1.648-1.883,3.551-3.358,5.431-4.987  C95.317,68.712,95.525,66.538,93.64,65.503z"/><text x="0" y="115" fill="#000000" font-size="5px" font-weight="bold" font-family="'Helvetica Neue', Helvetica, Arial-Unicode, Arial, Sans-serif">Created by Vladimir Belochkin</text><text x="0" y="120" fill="#000000" font-size="5px" font-weight="bold" font-family="'Helvetica Neue', Helvetica, Arial-Unicode, Arial, Sans-serif">from the Noun Project</text></svg>