<svg xmlns="http://www.w3.org/2000/svg" xmlns:xlink="http://www.w3.org/1999/xlink" version="1.1" x="0px" y="0px" viewBox="0 0 100 125" enable-background="new 0 0 100 100" xml:space="preserve"><g><g><g><g><path fill="none" d="M47.793,41.368c-2.908,2.014-6.134,5.497-6.097,9.309c0.054,5.442,6.164,7.061,10.378,5.404      c7.614-2.993,8.665-12.321,4.964-18.754C53.821,38.054,50.711,39.347,47.793,41.368z"/><path d="M94.675,40.841c-2.487-4.476-5.408-8.566-8.823-12.381c-1.748-1.953-5.262,0.504-3.77,2.758      c1.17,1.768,2.34,3.537,3.509,5.305c-8.517-3.195-17.708-5.38-26.487-4.241c-0.032-0.039-0.06-0.081-0.092-0.12      C50.136,21.4,33.229,21.455,22.436,29.055C9.538,38.137-0.33,61.035,8.181,75.852c0.535,0.932,2.009,0.374,1.754-0.687      c-3.299-13.77,1.573-30.487,12.148-40.09c8.329-7.563,23.392-9.812,31.863-1.702c-2.649,0.787-5.24,1.927-7.737,3.507      c-5.011,3.169-9.76,8.704-9.076,15.041c0.686,6.35,6.985,10.084,13.007,9.429c12.392-1.348,15.882-14.82,11.597-24.687      c7.591-0.498,15.526,1.609,22.777,4.409c-2.37,0.508-4.711,1.152-7.039,1.965c-2.86,0.999-1.731,5.607,1.15,4.597      c4.441-1.556,8.868-2.577,13.563-3.001c0.622-0.056,1.237-0.359,1.697-0.798C94.847,43.263,95.384,42.116,94.675,40.841z       M52.073,56.082c-4.214,1.656-10.324,0.037-10.378-5.404c-0.038-3.813,3.188-7.295,6.097-9.309      c2.919-2.021,6.029-3.314,9.245-4.041C60.738,43.761,59.687,53.089,52.073,56.082z"/></g></g></g></g><text x="0" y="115" fill="#000000" font-size="5px" font-weight="bold" font-family="'Helvetica Neue', Helvetica, Arial-Unicode, Arial, Sans-serif">Created by Vladimir Belochkin</text><text x="0" y="120" fill="#000000" font-size="5px" font-weight="bold" font-family="'Helvetica Neue', Helvetica, Arial-Unicode, Arial, Sans-serif">from the Noun Project</text></svg>