<svg xmlns="http://www.w3.org/2000/svg" xmlns:xlink="http://www.w3.org/1999/xlink" version="1.1" x="0px" y="0px" viewBox="0 0 100 125" enable-background="new 0 0 100 100" xml:space="preserve"><g><path d="M70.73,8.87C64.137,6.736,57.478,5.489,50.57,5.008c-2.988-0.208-3.762,3.967-1.46,5.389   c2.564,1.583,5.202,2.789,7.932,3.671c-12.698,6.574-22.214,18.221-26.614,32.118c-4.492,14.186-6.27,38.95,7.82,48.572   c1.348,0.921,2.516-1.01,1.624-2.104c-9.805-12.032-8.77-32.17-3.843-46.013c4.42-12.419,13.302-22.682,25.034-28.197   c-1.144,1.754-2.197,3.568-3.127,5.46c-1.588,3.23,2.999,6.005,4.872,2.848c2.76-4.651,5.589-8.972,9.203-13.028   C73.491,12.062,72.874,9.565,70.73,8.87z"/></g><text x="0" y="115" fill="#000000" font-size="5px" font-weight="bold" font-family="'Helvetica Neue', Helvetica, Arial-Unicode, Arial, Sans-serif">Created by Vladimir Belochkin</text><text x="0" y="120" fill="#000000" font-size="5px" font-weight="bold" font-family="'Helvetica Neue', Helvetica, Arial-Unicode, Arial, Sans-serif">from the Noun Project</text></svg>