<svg xmlns="http://www.w3.org/2000/svg" xmlns:xlink="http://www.w3.org/1999/xlink" version="1.1" x="0px" y="0px" viewBox="0 0 90 112.5" enable-background="new 0 0 90 90" xml:space="preserve"><g><path d="M45,15.10645C28.51563,15.10645,15.10547,28.5166,15.10547,45S28.51563,74.89355,45,74.89355S74.89453,61.4834,74.89453,45   S61.48438,15.10645,45,15.10645z M45,72.89355c-15.38086,0-27.89453-12.5127-27.89453-27.89355S29.61914,17.10645,45,17.10645   S72.89453,29.61914,72.89453,45S60.38086,72.89355,45,72.89355z"/><path d="M50.11426,41.60547l5.5459-11.13184l-12.24902,2.14258l2.69434,3.61328l-11.47559,8.86719l16.11914,12.46289   l1.22266-1.58203L37.89941,45.09668l9.40137-7.26465L50.11426,41.60547z M52.10352,33.12598l-2.3291,4.67676l-2.81641-3.77637   L52.10352,33.12598z"/></g><text x="0" y="105" fill="#000000" font-size="5px" font-weight="bold" font-family="'Helvetica Neue', Helvetica, Arial-Unicode, Arial, Sans-serif">Created by iconcheese</text><text x="0" y="110" fill="#000000" font-size="5px" font-weight="bold" font-family="'Helvetica Neue', Helvetica, Arial-Unicode, Arial, Sans-serif">from the Noun Project</text></svg>