<svg xmlns="http://www.w3.org/2000/svg" xmlns:xlink="http://www.w3.org/1999/xlink" version="1.1" x="0px" y="0px" viewBox="0 0 90 112.5" enable-background="new 0 0 90 90" xml:space="preserve"><g><path d="M45,15.10645C28.5166,15.10645,15.10645,28.5166,15.10645,45S28.5166,74.89355,45,74.89355S74.89355,61.4834,74.89355,45   S61.4834,15.10645,45,15.10645z M45,72.89355c-15.38086,0-27.89355-12.5127-27.89355-27.89355S29.61914,17.10645,45,17.10645   S72.89355,29.61914,72.89355,45S60.38086,72.89355,45,72.89355z"/><path d="M51.85156,44.57617h4.95117v2.58008c0,3.27246-2.66113,5.93555-5.93262,5.93555   c-3.27344,0-5.93555-2.66309-5.93555-5.93555v-1.21289c0-4.375-3.55957-7.93359-7.93359-7.93359   c-4.375,0-7.93457,3.55859-7.93457,7.93359v8.14844h2v-8.14844c0-3.27148,2.66211-5.93359,5.93457-5.93359   c3.27148,0,5.93359,2.66211,5.93359,5.93359v1.21289c0,4.37598,3.55957,7.93555,7.93555,7.93555   c4.37402,0,7.93262-3.55957,7.93262-7.93555v-2.58008h4.95215l-5.95117-10.9834L51.85156,44.57617z M55.20996,42.57617   l2.59375-4.78613l2.59277,4.78613H55.20996z"/></g><text x="0" y="105" fill="#000000" font-size="5px" font-weight="bold" font-family="'Helvetica Neue', Helvetica, Arial-Unicode, Arial, Sans-serif">Created by iconcheese</text><text x="0" y="110" fill="#000000" font-size="5px" font-weight="bold" font-family="'Helvetica Neue', Helvetica, Arial-Unicode, Arial, Sans-serif">from the Noun Project</text></svg>