<svg xmlns="http://www.w3.org/2000/svg" xmlns:xlink="http://www.w3.org/1999/xlink" version="1.1" x="0px" y="0px" viewBox="0 0 90 112.5" enable-background="new 0 0 90 90" xml:space="preserve"><g><path d="M45,15.10645C28.5166,15.10645,15.10645,28.5166,15.10645,45S28.5166,74.89355,45,74.89355S74.89355,61.4834,74.89355,45   S61.4834,15.10645,45,15.10645z M45,72.89355c-15.38086,0-27.89355-12.5127-27.89355-27.89355S29.61914,17.10645,45,17.10645   S72.89355,29.61914,72.89355,45S60.38086,72.89355,45,72.89355z"/><path d="M45.4834,41.84375L34.37598,52.94824l1.41406,1.41406l11.10742-11.10449l3.57617,3.57617l3.55566-11.97461   l-11.97266,3.55762L45.4834,41.84375z M51.06152,37.82813l-1.54883,5.2168l-3.66699-3.66699L51.06152,37.82813z"/></g><text x="0" y="105" fill="#000000" font-size="5px" font-weight="bold" font-family="'Helvetica Neue', Helvetica, Arial-Unicode, Arial, Sans-serif">Created by iconcheese</text><text x="0" y="110" fill="#000000" font-size="5px" font-weight="bold" font-family="'Helvetica Neue', Helvetica, Arial-Unicode, Arial, Sans-serif">from the Noun Project</text></svg>