<svg xmlns="http://www.w3.org/2000/svg" xmlns:xlink="http://www.w3.org/1999/xlink" version="1.1" x="0px" y="0px" viewBox="0 0 100 125" style="enable-background:new 0 0 100 100;" xml:space="preserve"><path d="M67.121,32.879c-1.171-1.172-3.071-1.172-4.242,0L50,45.758L37.121,32.879c-1.171-1.172-3.071-1.172-4.242,0  c-1.172,1.171-1.172,3.071,0,4.242L45.758,50L32.879,62.879c-1.172,1.171-1.172,3.071,0,4.242C33.464,67.707,34.232,68,35,68  s1.536-0.293,2.121-0.879L50,54.242l12.879,12.879C63.464,67.707,64.232,68,65,68s1.536-0.293,2.121-0.879  c1.172-1.171,1.172-3.071,0-4.242L54.242,50l12.879-12.879C68.293,35.95,68.293,34.05,67.121,32.879z"/><path d="M50,5C25.187,5,5,25.187,5,50s20.187,45,45,45s45-20.187,45-45S74.813,5,50,5z M50,83c-18.196,0-33-14.804-33-33  s14.804-33,33-33s33,14.804,33,33S68.196,83,50,83z"/><text x="0" y="115" fill="#000000" font-size="5px" font-weight="bold" font-family="'Helvetica Neue', Helvetica, Arial-Unicode, Arial, Sans-serif">Created by Artem Yurov</text><text x="0" y="120" fill="#000000" font-size="5px" font-weight="bold" font-family="'Helvetica Neue', Helvetica, Arial-Unicode, Arial, Sans-serif">from the Noun Project</text></svg>