<svg xmlns="http://www.w3.org/2000/svg" xmlns:xlink="http://www.w3.org/1999/xlink" version="1.1" x="0px" y="0px" viewBox="0 0 50 62.5" enable-background="new 0 0 50 50" xml:space="preserve"><g><path fill="#000000" d="M24.996,1.259C11.907,1.259,1.26,11.91,1.26,25.001c0,13.092,10.647,23.74,23.736,23.74   c13.089,0,23.744-10.648,23.744-23.74C48.74,11.91,38.085,1.259,24.996,1.259z M24.996,44.851c-10.945,0-19.851-8.9-19.851-19.85   c0-10.953,8.901-19.861,19.851-19.861c10.95,0,19.858,8.908,19.858,19.861C44.854,35.95,35.946,44.851,24.996,44.851z"/><path fill="#000000" d="M25,12.133c-6.84,0-12.409,5.571-12.409,12.415c0,6.842,5.569,12.412,12.409,12.412   c6.846,0,12.413-5.569,12.413-12.412C37.411,17.704,31.844,12.133,25,12.133z M25,33.078c-4.702,0-8.526-3.825-8.526-8.53   c0-4.702,3.824-8.53,8.526-8.53c4.701,0,8.532,3.826,8.532,8.53C33.528,29.253,29.701,33.078,25,33.078z"/></g><text x="0" y="65" fill="#000000" font-size="5px" font-weight="bold" font-family="'Helvetica Neue', Helvetica, Arial-Unicode, Arial, Sans-serif">Created by Luboš Volkov</text><text x="0" y="70" fill="#000000" font-size="5px" font-weight="bold" font-family="'Helvetica Neue', Helvetica, Arial-Unicode, Arial, Sans-serif">from the Noun Project</text></svg>